<?xml version="1.0" encoding="UTF-8"?>
<svg id="Layer_1" data-name="Layer 1" xmlns="http://www.w3.org/2000/svg" viewBox="0 0 1076 1076">
  <g>
    <path d="M624.5,409.7l-117-67.6c-13.3-7.7-29.8,1.9-29.8,17.2v135.1c0,15.3,16.6,24.9,29.8,17.2l117-67.6c13.3-7.7,13.3-26.8,0-34.5Z"/>
    <path d="M714.4,417.6c-.4-8.4-7.6-15-16-14.5-8.4.4-14.9,7.6-14.5,16,.1,2.5.2,5.1.2,7.6,0,80.6-65.5,146.1-146.1,146.1s-146.1-65.5-146.1-146.1,65.5-146.1,146.1-146.1,79.8,17.3,107.3,47l-14.1,14.1c-6.3,6.3-2,16.9,6.8,17.2l46.8,1.3c5.8.2,10.5-4.6,10.3-10.3l-1.3-46.8c-.2-8.8-10.9-13.1-17.2-6.8l-9.7,9.7c-33.2-35.3-80.1-55.9-128.9-55.9-97.4,0-176.7,79.3-176.7,176.7s79.3,176.7,176.7,176.7,176.7-79.3,176.7-176.7,0-6.1-.2-9.1Z"/>
  </g>
  <g>
    <g>
      <path d="M467.3,830.8h-22.1l-7.8-32.5c-.5-2.2-1.1-5.2-2.1-9s-1.8-7.8-2.7-11.9c-.9-4.1-1.5-7.3-2-9.6-.4-2.3-.9-5.3-1.4-9.1h-.5c-.6,5.1-1.4,10.3-2.6,15.8-1.1,5.5-2.3,10.9-3.6,16l-9.1,40.3h-22.4l-23.2-86.4h18l8.3,33c4,14.3,6.8,26.9,8.2,37.7h.5c.7-4.1,1.6-9.1,2.7-15,1.1-5.9,2.2-11.4,3.2-16.7l8.8-39.1h23.3l8.6,35.4c3.4,13.8,5.7,25.5,7.1,35.4h.5c.6-3.9,1.3-8.3,2.3-13.1.9-4.8,2-9.8,3.3-15.1,1.2-5.3,2.3-9.6,3.2-12.8l7.3-29.7h17.1l-22.8,86.4Z"/>
      <path d="M547.2,830.8h-14.8l-.3-9.6c-2,3.4-4.8,6-8.3,7.9-3.6,1.8-7.4,2.8-11.6,2.8s-8.1-.7-11.4-2.2c-3.4-1.5-6-3.7-7.9-6.7-1.9-3-2.9-6.7-2.9-11,0-8,3.1-13.5,9.4-16.4,6.3-3,13.9-4.4,23-4.4s2.2,0,2.5,0c.4,0,1.2,0,2.5.1,1.3,0,2.6.1,4,.2,0-4.8-1.2-8.3-3.5-10.6-2.3-2.3-5.9-3.5-10.8-3.5-7.3,0-14,2.3-19.9,7l-.5-14.4c6.9-2.9,14.3-4.4,22.3-4.4s6,.3,8.9.9c3,.6,5.7,1.6,8.2,2.9,2.5,1.4,4.6,3.2,6.3,5.5,1.7,2.3,2.8,4.9,3.3,7.8.5,2.9.8,6.4.8,10.5s0,8.4,0,12.6c0,4.2,0,8.1.1,11.5,0,3.5.2,8,.5,13.6ZM531.7,801.7c-.4,0-1.1-.1-2-.1h-2c-3.6,0-6.9.2-10,.6-3,.4-5.7,1.4-7.9,3-2.3,1.6-3.4,4-3.4,7.1s1,4.5,3,6c2,1.5,4.3,2.2,7,2.2,5,0,8.8-1.9,11.4-5.6,2.6-3.7,3.9-8.2,3.9-13.3Z"/>
      <path d="M593.3,817.1l.6,13c-4.2.8-8,1.3-11.2,1.3-5.4,0-9.7-1-12.9-3-3.2-2-5.4-4.9-6.6-8.5-1.3-3.7-1.9-8.2-1.9-13.6v-26.8h-12.1v-12.3h12.3v-13l16.6-5.4v18.5h14.6v12.3h-14.6v23.3c0,5,.5,8.8,1.6,11.4,1.1,2.6,3.7,3.9,7.9,3.9s3.5-.3,5.7-.9Z"/>
      <path d="M642.7,814.9l.9,14c-5.6,1.6-10.5,2.5-14.9,2.5s-9.4-.7-13.5-2.2c-4.1-1.5-7.6-3.7-10.5-6.5-2.9-2.9-5.2-6.4-6.7-10.5-1.5-4.1-2.3-8.7-2.3-13.6s1.4-11.9,4.1-16.8c2.7-4.9,6.6-8.7,11.5-11.4s10.6-4,16.8-4,9.3.7,14.1,2.1l-1.3,13.3c-3.8-1.5-7.2-2.2-10.2-2.2s-6.6.9-9.3,2.6c-2.7,1.7-4.8,4-6.3,6.8-1.5,2.8-2.2,6-2.2,9.5,0,5.8,1.7,10.4,5.1,13.9,3.4,3.5,7.9,5.3,13.6,5.3s7.3-.9,11.1-2.6Z"/>
      <path d="M708.2,830.8h-16.6v-31.1c0-6.2-.7-11.1-2-14.8-1.3-3.7-4.5-5.5-9.4-5.5s-9,2.2-11.2,6.5c-2.2,4.4-3.2,9.5-3.2,15.3v29.5h-16.6v-93.3h16.6v38.3c2.4-3.5,5.3-6,8.7-7.7,3.4-1.7,7.2-2.5,11.6-2.5s8.2.7,11.2,2.2c2.9,1.5,5.2,3.4,6.8,5.9,1.6,2.5,2.7,5.4,3.3,8.7.6,3.3.9,7.2.9,11.7v36.8Z"/>
    </g>
    <g>
      <path d="M343.6,692.2v32.8h-17.5v-86.4h23.7c4.9,0,9.3.4,13.3,1.1,3.9.8,7.5,2.2,10.7,4.4,3.2,2.3,5.8,5.3,7.7,9,1.9,3.7,2.8,7.6,2.8,11.8s-.9,9-2.6,12.5c-1.7,3.5-4.1,6.4-7.1,8.6-3,2.2-6.5,3.8-10.6,4.9-4,1-8.4,1.6-12.9,1.6s-4.2,0-7.5-.3ZM343.6,678.8c3,0,5.8-.1,8.3-.4,2.5-.3,4.8-.8,6.8-1.6,2-.8,3.7-2.2,5-4.1,1.3-1.9,1.9-4.4,1.9-7.5s-1.1-7.2-3.2-9.1c-2.1-1.9-4.6-3.1-7.6-3.5-2.9-.4-6.7-.7-11.3-.8v27.1Z"/>
      <path d="M406.4,725h-16.6v-44.9c-.2-10.7-.4-17.1-.5-19.3h15.1l.4,16.2c1.4-5.1,3.6-9.1,6.5-12.1,2.9-3,6.8-4.6,11.5-4.6s3.1.2,4.9.6v15.6c-2.2-.6-4.1-.9-5.8-.9-3.9,0-7,1-9.4,3.1-2.3,2.1-3.9,4.7-4.8,7.9-.9,3.2-1.3,6.8-1.3,10.6v27.7Z"/>
      <path d="M483.5,707.9l.3,14.4c-6.8,3-14.1,4.4-22,4.4s-10-.7-14.1-2.2c-4.1-1.5-7.6-3.7-10.5-6.6-2.9-2.9-5.1-6.5-6.6-10.6-1.5-4.2-2.3-8.9-2.3-14.2s.7-9.4,2.1-13.5c1.4-4.1,3.4-7.7,6.1-10.7,2.7-3,5.9-5.4,9.8-7.1,3.9-1.7,8.3-2.5,13.3-2.5s9,.9,12.7,2.6c3.7,1.7,6.7,4.1,9,7.1,2.3,3,4,6.5,5.2,10.5,1.1,4,1.7,8.4,1.7,13.1s0,1.5,0,1.9c0,.4,0,.9-.1,1.6,0,.6-.1,1.4-.2,2.2h-43.1c.4,5.1,2.4,9,5.9,11.8,3.5,2.8,7.9,4.2,13.1,4.2s12.5-2.2,19.9-6.5ZM472.2,686.7c0-2.9-.6-5.5-1.5-7.9-.9-2.4-2.4-4.3-4.4-5.8-2-1.5-4.4-2.2-7.3-2.2s-5.6.7-7.7,2.2c-2.1,1.5-3.8,3.4-4.9,5.8-1.2,2.4-1.9,5.1-2.1,8h28Z"/>
      <path d="M530.7,725h-18.5l-24-64.2h18.2l10.8,30.9c2.8,7.9,4.6,14.2,5.2,19,1-5.1,2.4-10.1,4.1-14.9l11.5-35h16.7l-23.9,64.2Z"/>
      <path d="M574.9,649.2h-17.1v-15.7h17.1v15.7ZM574.7,725h-16.6v-64.2h16.6v64.2Z"/>
      <path d="M637.1,707.9l.3,14.4c-6.8,3-14.1,4.4-22,4.4s-10-.7-14.1-2.2-7.6-3.7-10.5-6.6c-2.9-2.9-5.1-6.5-6.6-10.6-1.5-4.2-2.3-8.9-2.3-14.2s.7-9.4,2.1-13.5c1.4-4.1,3.4-7.7,6.1-10.7,2.7-3,5.9-5.4,9.8-7.1,3.9-1.7,8.3-2.5,13.3-2.5s9,.9,12.7,2.6c3.7,1.7,6.7,4.1,9,7.1s4,6.5,5.2,10.5c1.1,4,1.7,8.4,1.7,13.1s0,1.5,0,1.9c0,.4,0,.9-.1,1.6,0,.6-.1,1.4-.2,2.2h-43.1c.4,5.1,2.4,9,5.9,11.8,3.5,2.8,7.9,4.2,13.1,4.2s12.5-2.2,19.9-6.5ZM625.9,686.7c0-2.9-.6-5.5-1.5-7.9-.9-2.4-2.4-4.3-4.4-5.8-2-1.5-4.4-2.2-7.3-2.2s-5.6.7-7.7,2.2-3.8,3.4-4.9,5.8c-1.2,2.4-1.9,5.1-2.1,8h28Z"/>
      <path d="M749.9,660.8l-19.9,64.2h-19.3l-8-24.9c-1.8-5.9-3.2-10.6-4.1-14.2-.9-3.6-1.7-7.5-2.2-11.9-.5,2.9-1,5.5-1.6,7.8-.5,2.3-1.2,5.1-2,8.1-.8,3.1-1.5,6-2.2,8.7l-8,26.3h-19.1l-21.8-64.2h17.5l7.5,23.1c3.5,10.7,5.8,20.1,7,28.1.7-4.6,1.5-8.8,2.4-12.7.9-3.9,2-8.1,3.3-12.6l7.7-25.9h19.2l9.1,28.9c2.6,7.8,4.3,15.2,5.3,22,1-7.1,2.6-14.5,4.9-22.3l8.3-28.7h16.1Z"/>
    </g>
  </g>
</svg>