<?xml version="1.0" encoding="UTF-8"?>
<svg id="Layer_1" xmlns="http://www.w3.org/2000/svg" version="1.1" viewBox="0 0 1076.01 1076.01">
  <!-- Generator: Adobe Illustrator 29.7.1, SVG Export Plug-In . SVG Version: 2.1.1 Build 8)  -->
  <g>
    <path d="M595.44,452.84l-77.72-44.87c-8.81-5.08-19.81,1.27-19.81,11.44v89.74c0,10.17,11.01,16.52,19.81,11.44l77.72-44.87c8.81-5.08,8.81-17.8,0-22.88Z"/>
    <path d="M655.16,458.07c-.28-5.6-5.05-9.93-10.65-9.62-5.6.28-9.91,5.05-9.62,10.65.08,1.67.13,3.36.13,5.03,0,53.49-43.52,97.01-97.01,97.01s-97.01-43.52-97.01-97.01,43.52-97.01,97.01-97.01c27.06,0,53,11.51,71.25,31.2l-9.38,9.38c-4.15,4.15-1.32,11.25,4.55,11.41l31.04.84c3.83.1,6.97-3.03,6.86-6.86l-.84-31.04c-.16-5.87-7.26-8.7-11.41-4.55l-6.46,6.46c-22.04-23.46-53.16-37.14-85.62-37.14-64.69,0-117.31,52.63-117.31,117.31s52.63,117.31,117.31,117.31,117.31-52.63,117.31-117.31c0-2.01-.05-4.05-.15-6.06Z"/>
  </g>
  <g>
    <g>
      <path d="M491.04,732.44h-14.7l-5.16-21.59c-.31-1.46-.76-3.46-1.37-6.01s-1.2-5.18-1.78-7.9c-.59-2.72-1.03-4.84-1.32-6.36-.29-1.53-.61-3.55-.94-6.07h-.34c-.39,3.36-.96,6.87-1.7,10.52-.74,3.66-1.55,7.2-2.41,10.65l-6.05,26.76h-14.86l-15.41-57.39h11.97l5.5,21.93c2.69,9.52,4.49,17.87,5.42,25.04h.34c.45-2.72,1.04-6.03,1.78-9.94.74-3.91,1.45-7.6,2.12-11.07l5.84-25.96h15.45l5.71,23.48c2.24,9.13,3.81,16.96,4.7,23.48h.33c.39-2.6.9-5.5,1.51-8.7.62-3.19,1.34-6.54,2.16-10.04.83-3.5,1.53-6.34,2.12-8.53l4.87-19.7h11.38l-15.16,57.39Z"/>
      <path d="M544.12,732.44h-9.83l-.17-6.39c-1.32,2.27-3.16,4.01-5.52,5.23-2.37,1.22-4.94,1.83-7.71,1.83s-5.36-.49-7.58-1.47c-2.23-.98-3.98-2.47-5.27-4.47-1.29-2-1.93-4.43-1.93-7.29,0-5.32,2.09-8.96,6.26-10.92,4.17-1.96,9.26-2.94,15.25-2.94.87,0,1.43,0,1.68.02.25.01.81.04,1.68.08.87.04,1.75.09,2.65.15,0-3.16-.77-5.52-2.31-7.06-1.54-1.54-3.92-2.31-7.14-2.31-4.87,0-9.27,1.55-13.19,4.66l-.34-9.58c4.57-1.93,9.51-2.9,14.83-2.9,1.99,0,3.96.2,5.92.59,1.96.39,3.77,1.04,5.44,1.95,1.67.91,3.05,2.12,4.16,3.63,1.11,1.51,1.83,3.24,2.18,5.19.35,1.95.53,4.26.53,6.95s0,5.56.02,8.36c.01,2.8.04,5.36.08,7.67.04,2.31.15,5.31.31,9.01ZM533.79,713.07c-.28-.06-.71-.08-1.3-.08h-1.34c-2.41,0-4.61.13-6.62.4-2,.27-3.75.94-5.25,2.02-1.5,1.08-2.25,2.65-2.25,4.73,0,1.68.66,3.02,2,4.01,1.33.99,2.88,1.49,4.64,1.49,3.33,0,5.85-1.23,7.56-3.7,1.71-2.46,2.56-5.42,2.56-8.86Z"/>
      <path d="M574.74,723.32l.38,8.61c-2.8.56-5.28.84-7.44.84-3.61,0-6.47-.67-8.57-2-2.1-1.33-3.57-3.22-4.41-5.67-.84-2.45-1.26-5.45-1.26-9.01v-17.81h-8.02v-8.19h8.19v-8.65l11.01-3.61v12.27h9.7v8.19h-9.7v15.5c0,3.3.36,5.82,1.07,7.54.71,1.72,2.47,2.58,5.27,2.58,1.04,0,2.3-.2,3.78-.59Z"/>
      <path d="M607.54,721.85l.63,9.28c-3.7,1.09-7,1.64-9.91,1.64-3.25,0-6.23-.5-8.95-1.49-2.72-.99-5.05-2.44-6.99-4.35-1.95-1.9-3.43-4.22-4.45-6.95-1.02-2.73-1.53-5.75-1.53-9.05,0-4.2.9-7.93,2.71-11.17,1.81-3.25,4.35-5.77,7.65-7.56s7.01-2.69,11.15-2.69c3.08,0,6.2.46,9.37,1.39l-.84,8.86c-2.52-.98-4.79-1.47-6.81-1.47-2.3,0-4.35.57-6.18,1.7-1.82,1.13-3.21,2.65-4.18,4.54-.97,1.89-1.45,4-1.45,6.32,0,3.84,1.12,6.92,3.36,9.24,2.24,2.33,5.25,3.49,9.03,3.49,2.41,0,4.87-.57,7.39-1.72Z"/>
      <path d="M651.01,732.44h-11.01v-20.67c0-4.09-.44-7.36-1.32-9.81-.88-2.45-2.96-3.68-6.24-3.68-3.53,0-6.01,1.45-7.44,4.35-1.43,2.9-2.14,6.29-2.14,10.19v19.62h-11.01v-61.96h11.01v25.42c1.6-2.3,3.51-4,5.76-5.13,2.24-1.12,4.8-1.68,7.69-1.68s5.47.48,7.41,1.45c1.95.97,3.45,2.28,4.49,3.93,1.05,1.65,1.78,3.58,2.18,5.78.41,2.2.61,4.78.61,7.75v24.45Z"/>
    </g>
    <g>
      <path d="M408.89,640.38v21.76h-11.59v-57.39h15.75c3.25,0,6.18.25,8.8.76,2.62.5,4.99,1.48,7.12,2.94,2.16,1.54,3.85,3.53,5.08,5.97,1.23,2.44,1.85,5.04,1.85,7.81,0,3.19-.57,5.97-1.72,8.32-1.15,2.35-2.72,4.26-4.7,5.73-1.99,1.47-4.33,2.55-7.02,3.23-2.69.69-5.54,1.03-8.57,1.03-1.15,0-2.81-.06-5-.17ZM408.89,631.52c2.02,0,3.86-.08,5.52-.25,1.67-.17,3.17-.53,4.52-1.09,1.34-.56,2.44-1.47,3.3-2.73.85-1.26,1.28-2.91,1.28-4.96,0-2.77-.7-4.8-2.1-6.07-1.4-1.27-3.07-2.06-5.02-2.35-1.95-.29-4.45-.47-7.5-.52v17.98Z"/>
      <path d="M450.6,662.14h-11.01v-29.79c-.14-7.09-.25-11.36-.34-12.81h10l.25,10.75c.95-3.36,2.4-6.05,4.35-8.07,1.95-2.02,4.49-3.02,7.62-3.02.95,0,2.03.14,3.24.42v10.33c-1.46-.39-2.75-.59-3.87-.59-2.6,0-4.68.69-6.22,2.06-1.54,1.37-2.6,3.13-3.17,5.27-.57,2.14-.86,4.49-.86,7.04v18.4Z"/>
      <path d="M501.8,650.8l.17,9.54c-4.51,1.96-9.38,2.94-14.62,2.94-3.5,0-6.62-.5-9.35-1.49-2.73-.99-5.06-2.46-7-4.41-1.93-1.95-3.4-4.3-4.41-7.06s-1.51-5.9-1.51-9.43c0-3.25.47-6.24,1.41-8.97.94-2.73,2.29-5.1,4.05-7.1,1.76-2,3.94-3.56,6.53-4.68,2.59-1.12,5.52-1.68,8.8-1.68s6.01.57,8.44,1.72c2.44,1.15,4.42,2.73,5.94,4.75,1.53,2.02,2.67,4.35,3.42,6.99.76,2.65,1.13,5.55,1.13,8.72,0,.56-.02.98-.04,1.26-.03.28-.06.63-.08,1.05-.03.42-.07.91-.13,1.47h-28.65c.28,3.36,1.59,5.98,3.93,7.86,2.34,1.88,5.24,2.81,8.72,2.81,3.92,0,8.33-1.43,13.23-4.28ZM494.32,636.77c-.06-1.9-.4-3.66-1.03-5.25-.63-1.6-1.6-2.88-2.9-3.86-1.3-.98-2.92-1.47-4.85-1.47s-3.69.48-5.1,1.45c-1.41.97-2.51,2.25-3.28,3.84-.77,1.6-1.24,3.36-1.41,5.29h18.57Z"/>
      <path d="M533.13,662.14h-12.31l-15.92-42.6h12.06l7.14,20.5c1.88,5.24,3.02,9.45,3.44,12.65.67-3.39,1.57-6.69,2.69-9.91l7.65-23.23h11.09l-15.84,42.6Z"/>
      <path d="M562.53,611.81h-11.34v-10.42h11.34v10.42ZM562.36,662.14h-11.01v-42.6h11.01v42.6Z"/>
      <path d="M603.81,650.8l.17,9.54c-4.51,1.96-9.38,2.94-14.62,2.94-3.5,0-6.62-.5-9.35-1.49s-5.06-2.46-6.99-4.41c-1.93-1.95-3.4-4.3-4.41-7.06-1.01-2.76-1.51-5.9-1.51-9.43,0-3.25.47-6.24,1.41-8.97.94-2.73,2.29-5.1,4.05-7.1,1.76-2,3.94-3.56,6.53-4.68,2.59-1.12,5.52-1.68,8.8-1.68s6.01.57,8.44,1.72c2.44,1.15,4.42,2.73,5.94,4.75s2.67,4.35,3.42,6.99,1.13,5.55,1.13,8.72c0,.56-.01.98-.04,1.26-.03.28-.06.63-.08,1.05-.03.42-.07.91-.13,1.47h-28.65c.28,3.36,1.59,5.98,3.93,7.86,2.34,1.88,5.24,2.81,8.72,2.81,3.92,0,8.33-1.43,13.23-4.28ZM596.34,636.77c-.06-1.9-.4-3.66-1.03-5.25-.63-1.6-1.6-2.88-2.9-3.86-1.3-.98-2.92-1.47-4.85-1.47s-3.69.48-5.1,1.45-2.51,2.25-3.28,3.84c-.77,1.6-1.24,3.36-1.41,5.29h18.57Z"/>
      <path d="M678.71,619.54l-13.18,42.6h-12.81l-5.33-16.51c-1.2-3.92-2.11-7.06-2.73-9.43-.62-2.37-1.1-4.99-1.47-7.88-.34,1.9-.69,3.63-1.05,5.19-.36,1.55-.81,3.35-1.34,5.4-.53,2.04-1.02,3.96-1.47,5.76l-5.33,17.48h-12.68l-14.44-42.6h11.63l5,15.33c2.29,7.11,3.83,13.33,4.62,18.65.45-3.03.97-5.83,1.57-8.4.6-2.58,1.34-5.36,2.2-8.36l5.08-17.22h12.72l6.05,19.2c1.71,5.21,2.88,10.08,3.53,14.62.64-4.7,1.72-9.63,3.23-14.79l5.54-19.03h10.66Z"/>
    </g>
  </g>
</svg>